# xmcd
#
# Track frame offsets:
#	150
#	11895
#	15810
#	23795
#	38652
#	44745
#	55885
#	64935
#	76905
#	79115
#	95450
#	105160
#	122865
#	134495
#	136797
#	148660
#	154630
#	172012
#	185020
#
# Disc length: 2687 seconds
#
# Revision: 1
# Processed by: cddbd v1.5.2PL0 Copyright (c) Steve Scherf et al.
# Submitted via: audiograbber 1.83.01
#
DISCID=f80a7d13
DTITLE=Calexico - Spoke
DYEAR=1997
DGENRE=Alternative
TTITLE0=Low Expectations
TTITLE1=Mind the Gap
TTITLE2=Mazurra
TTITLE3=Sanchez
TTITLE4=Haul
TTITLE5=Slag
TTITLE6=Paper Route
TTITLE7=Glimpse
TTITLE8=Navy Cut
TTITLE9=Spokes
TTITLE10=Scout
TTITLE11=Point Vicente
TTITLE12=Wash
TTITLE13=Ice Cream Jeep
TTITLE14=Windjammer
TTITLE15=Mazurka
TTITLE16=Removed
TTITLE17=Hitch
TTITLE18=Stinging Nettle
EXTD=
EXTT0=
EXTT1=
EXTT2=
EXTT3=
EXTT4=
EXTT5=
EXTT6=
EXTT7=
EXTT8=
EXTT9=
EXTT10=
EXTT11=
EXTT12=
EXTT13=
EXTT14=
EXTT15=
EXTT16=
EXTT17=
EXTT18=
PLAYORDER=
